<svg xmlns="http://www.w3.org/2000/svg" viewBox="0 0 1200 630" role="img" aria-labelledby="title desc">
  <title id="title">Condo drywall repair Mississauga</title>
  <desc id="desc">Intent image for condo drywall repair in Mississauga high-rise units around Square One, Port Credit and Erin Mills.</desc>
  <rect width="1200" height="630" fill="#f8fafc"/>
  <rect x="70" y="66" width="1060" height="498" rx="34" fill="#fff" stroke="#cbd5e1" stroke-width="2"/>
  <rect x="126" y="128" width="140" height="350" rx="12" fill="#dbeafe"/>
  <rect x="294" y="98" width="190" height="380" rx="12" fill="#bfdbfe"/>
  <g fill="#fff"><rect x="154" y="164" width="34" height="34" rx="4"/><rect x="204" y="164" width="34" height="34" rx="4"/><rect x="154" y="224" width="34" height="34" rx="4"/><rect x="204" y="224" width="34" height="34" rx="4"/><rect x="154" y="284" width="34" height="34" rx="4"/><rect x="204" y="284" width="34" height="34" rx="4"/><rect x="330" y="148" width="42" height="42" rx="4"/><rect x="404" y="148" width="42" height="42" rx="4"/><rect x="330" y="224" width="42" height="42" rx="4"/><rect x="404" y="224" width="42" height="42" rx="4"/><rect x="330" y="300" width="42" height="42" rx="4"/><rect x="404" y="300" width="42" height="42" rx="4"/></g>
  <path d="M156 512c92-38 250-38 344 0" fill="none" stroke="#2563eb" stroke-width="18" stroke-linecap="round"/>
  <text x="610" y="184" fill="#0f172a" font-family="Arial, Helvetica, sans-serif" font-size="56" font-weight="700">Condo Drywall Repair</text>
  <text x="610" y="244" fill="#1d4ed8" font-family="Arial, Helvetica, sans-serif" font-size="40" font-weight="700">Mississauga</text>
  <text x="610" y="312" fill="#475569" font-family="Arial, Helvetica, sans-serif" font-size="28">Square One • City Centre • Port Credit • Erin Mills</text>
  <text x="610" y="372" fill="#334155" font-family="Arial, Helvetica, sans-serif" font-size="24">Elevator access, protection and paint-ready finish</text>
  <rect x="610" y="430" width="348" height="52" rx="26" fill="#dbeafe"/>
  <text x="636" y="464" fill="#1e40af" font-family="Arial, Helvetica, sans-serif" font-size="23" font-weight="700">condo drywall repair cost</text>
</svg>
