<svg xmlns="http://www.w3.org/2000/svg" width="1200" height="630" viewBox="0 0 1200 630" role="img" aria-labelledby="title desc">
  <title id="title">Toronto condo access affects popcorn ceiling removal cost</title>
  <desc id="desc">An illustration of a Toronto condo renovation setup showing elevator booking, hallway protection, floor covering, and contained work areas.</desc>
  <defs>
    <linearGradient id="bg" x1="0" x2="1" y1="0" y2="1">
      <stop offset="0%" stop-color="#0f172a"/>
      <stop offset="100%" stop-color="#155e75"/>
    </linearGradient>
    <linearGradient id="panel" x1="0" x2="1" y1="0" y2="1">
      <stop offset="0%" stop-color="#ffffff"/>
      <stop offset="100%" stop-color="#e0f2fe"/>
    </linearGradient>
  </defs>
  <rect width="1200" height="630" fill="url(#bg)"/>
  <text x="70" y="90" fill="#f8fafc" font-family="Arial, Helvetica, sans-serif" font-size="28" font-weight="700">
    Toronto Condo Cost Factors
  </text>
  <text x="70" y="145" fill="#cffafe" font-family="Arial, Helvetica, sans-serif" font-size="54" font-weight="700">
    Access Changes The Quote
  </text>
  <text x="70" y="190" fill="#bae6fd" font-family="Arial, Helvetica, sans-serif" font-size="22">
    Condos often need more staging, protection, and building coordination.
  </text>

  <g transform="translate(70,250)">
    <rect width="330" height="260" rx="28" fill="url(#panel)"/>
    <rect x="34" y="34" width="100" height="180" rx="14" fill="#1d4ed8"/>
    <rect x="52" y="58" width="64" height="46" rx="8" fill="#dbeafe"/>
    <rect x="52" y="122" width="64" height="46" rx="8" fill="#dbeafe"/>
    <rect x="180" y="54" width="110" height="160" rx="18" fill="#f8fafc" stroke="#94a3b8" stroke-width="3"/>
    <rect x="210" y="78" width="50" height="112" rx="10" fill="#cbd5e1"/>
    <text x="32" y="238" fill="#0f172a" font-family="Arial, Helvetica, sans-serif" font-size="24" font-weight="700">
      Elevator bookings
    </text>
  </g>

  <g transform="translate(435,250)">
    <rect width="330" height="260" rx="28" fill="url(#panel)"/>
    <rect x="36" y="54" width="258" height="32" rx="10" fill="#cbd5e1"/>
    <rect x="36" y="104" width="258" height="94" rx="18" fill="#e0f2fe" stroke="#38bdf8" stroke-width="4" stroke-dasharray="12 10"/>
    <rect x="92" y="126" width="146" height="50" rx="12" fill="#f8fafc"/>
    <text x="111" y="158" fill="#0f172a" font-family="Arial, Helvetica, sans-serif" font-size="24" font-weight="700">
      Protected Hallway
    </text>
    <text x="36" y="238" fill="#0f172a" font-family="Arial, Helvetica, sans-serif" font-size="24" font-weight="700">
      Hallway protection
    </text>
  </g>

  <g transform="translate(800,250)">
    <rect width="330" height="260" rx="28" fill="url(#panel)"/>
    <rect x="34" y="52" width="262" height="144" rx="18" fill="#f8fafc" stroke="#94a3b8" stroke-width="3"/>
    <path d="M62 120h206" stroke="#38bdf8" stroke-width="6" stroke-dasharray="14 10"/>
    <circle cx="112" cy="120" r="18" fill="#0ea5e9"/>
    <circle cx="188" cy="120" r="18" fill="#0ea5e9"/>
    <circle cx="264" cy="120" r="18" fill="#0ea5e9"/>
    <text x="34" y="238" fill="#0f172a" font-family="Arial, Helvetica, sans-serif" font-size="24" font-weight="700">
      Dust containment
    </text>
  </g>
</svg>
